<svg width="22" height="23" viewBox="0 0 22 23" fill="none" xmlns="http://www.w3.org/2000/svg">
<path d="M8.10872 18.5C8.41458 18.5 8.67264 18.3926 8.88292 18.1778L14.6081 12.3884C14.8757 12.1248 15 11.8417 15 11.5C15 11.1583 14.8757 10.8654 14.6177 10.6116L8.88292 4.82218C8.67264 4.60739 8.41458 4.5 8.10872 4.5C7.49701 4.5 7 4.99791 7 5.62273C7 5.93515 7.12425 6.21827 7.34409 6.45258L12.3716 11.5098L7.34409 16.5572C7.12425 16.7817 7 17.0649 7 17.3773C7 18.0021 7.49701 18.5 8.10872 18.5Z" fill="#848D94"/>
</svg>
